<svg version="1.1" id="Layer_1" xmlns="http://www.w3.org/2000/svg" xmlns:xlink="http://www.w3.org/1999/xlink" x="0px" y="0px"
	 width="100%" viewBox="0 0 512 512" enable-background="new 0 0 512 512" xml:space="preserve">

<path fill="#A4E6FF" opacity="1.000000" stroke="none" 
	d="
M336.667908,404.774597 
	C338.601501,401.921173 340.009796,399.024872 338.113953,395.529327 
	C336.010742,391.651428 332.435608,391.424408 328.663177,391.425201 
	C266.253357,391.438354 203.843521,391.434814 141.433701,391.430542 
	C139.270874,391.430389 137.108047,391.383636 134.303314,390.957642 
	C129.200165,386.325012 124.692924,382.140656 120.285362,377.853821 
	C96.050079,354.282654 80.338646,325.819885 72.649109,293.043396 
	C68.288536,274.456635 66.003273,255.539917 67.948380,236.369370 
	C69.183952,224.191742 70.248222,211.979462 72.059578,199.883072 
	C73.478317,190.408600 75.926109,181.088242 77.916702,171.699402 
	C88.456612,167.824554 98.786476,163.173431 109.584282,160.251648 
	C127.013573,155.535461 138.009705,145.194794 142.205872,127.616241 
	C153.588760,79.931259 182.687439,48.928867 230.269852,36.850651 
	C292.794250,20.979584 357.406006,62.001034 370.955872,125.331696 
	C375.031525,144.380814 386.165588,155.976288 405.304108,160.369217 
	C454.474243,171.655426 490.361298,210.180984 496.868744,258.214233 
	C504.013184,310.949585 475.420929,361.123138 426.331085,381.993530 
	C417.586487,385.711304 417.031158,386.793457 418.873932,395.885559 
	C422.406281,413.314240 427.075226,430.605804 425.986694,448.640869 
	C425.413330,458.140015 423.148499,467.059998 415.167847,473.823120 
	C411.620819,472.159058 408.696106,470.572357 405.800781,468.933716 
	C384.898438,457.103729 366.397339,442.341553 351.144287,423.710724 
	C346.113922,417.566406 341.481995,411.095947 336.667908,404.774597 
M223.997742,290.398346 
	C224.736557,291.699097 225.402023,293.048401 226.225388,294.293243 
	C236.052017,309.150146 255.498856,314.874359 271.631836,307.683136 
	C288.223999,300.287201 297.053558,282.014771 292.385376,264.734436 
	C286.763275,243.922867 265.091858,232.242661 245.017838,239.204803 
	C224.196457,246.426163 214.709824,268.904205 223.997742,290.398346 
M394.551575,296.015228 
	C404.209808,281.907074 404.413055,265.780640 395.097015,252.734726 
	C386.056244,240.074280 370.177979,234.410156 355.468384,238.598297 
	C339.695496,243.089157 329.156647,256.457001 328.392303,272.942627 
	C327.698517,287.905609 337.359863,302.557556 351.571320,308.094940 
	C367.177704,314.175903 382.812256,309.940887 394.551575,296.015228 
M121.114441,249.627380 
	C109.356987,264.189148 108.732994,282.453583 119.514992,296.444061 
	C129.827835,309.825775 148.201736,314.519287 163.406418,307.655884 
	C177.160950,301.447083 185.734848,288.169159 185.183594,273.130249 
	C184.603317,257.299622 176.806290,245.882736 162.189651,240.026611 
	C146.902206,233.901733 133.218918,237.535828 121.114441,249.627380 
z"/>
<path fill="#5BD5FE" opacity="1.000000" stroke="none" 
	d="
M77.561768,171.777771 
	C75.926109,181.088242 73.478317,190.408600 72.059578,199.883072 
	C70.248222,211.979462 69.183952,224.191742 67.948380,236.369370 
	C66.003273,255.539917 68.288536,274.456635 72.649109,293.043396 
	C80.338646,325.819885 96.050079,354.282654 120.285362,377.853821 
	C124.692924,382.140656 129.200165,386.325012 133.850327,390.837158 
	C104.972809,391.632904 79.435104,381.982819 57.404312,363.425018 
	C32.845512,342.737732 19.096943,316.084991 16.187729,284.051697 
	C15.705145,278.737976 13.536183,275.661285 7.987287,274.789581 
	C7.987287,272.454620 8.097135,270.140076 7.963514,267.839661 
	C7.715547,263.570618 7.603093,259.978149 13.407827,258.802948 
	C15.331638,258.413452 17.303896,254.471054 17.891756,251.847763 
	C25.842745,216.367157 45.389294,189.588272 77.561768,171.777771 
z"/>
<path fill="#5AD4FC" opacity="1.000000" stroke="none" 
	d="
M336.275818,404.899628 
	C341.481995,411.095947 346.113922,417.566406 351.144287,423.710724 
	C366.397339,442.341553 384.898438,457.103729 405.800781,468.933716 
	C408.696106,470.572357 411.620819,472.159058 414.850708,473.935608 
	C407.239746,481.505402 397.711914,481.652405 388.071320,479.372284 
	C371.606049,475.477966 357.544769,466.536591 343.995453,456.858459 
	C326.780701,444.562195 312.129333,429.719574 300.796265,411.748657 
	C299.853485,410.253693 299.013763,408.693817 297.693878,406.419067 
	C308.358215,406.419067 318.267914,406.512695 328.173645,406.355225 
	C330.750061,406.314301 333.314056,405.489471 336.275818,404.899628 
z"/>
<path fill="#030404" opacity="1.000000" stroke="none" 
	d="
M223.852997,290.047485 
	C214.709824,268.904205 224.196457,246.426163 245.017838,239.204803 
	C265.091858,232.242661 286.763275,243.922867 292.385376,264.734436 
	C297.053558,282.014771 288.223999,300.287201 271.631836,307.683136 
	C255.498856,314.874359 236.052017,309.150146 226.225388,294.293243 
	C225.402023,293.048401 224.736557,291.699097 223.852997,290.047485 
M252.234619,252.874573 
	C250.812332,253.299896 249.323761,253.576218 247.978485,254.174667 
	C239.107834,258.120941 233.686722,268.154327 235.371124,277.368835 
	C237.273102,287.773560 245.585983,295.217712 255.946136,295.793671 
	C265.398193,296.319122 274.269196,290.119934 277.627655,280.485870 
	C277.916351,279.023773 278.296173,277.572998 278.479553,276.097809 
	C280.236694,261.963135 266.598328,249.594406 252.234619,252.874573 
z"/>
<path fill="#030404" opacity="1.000000" stroke="none" 
	d="
M394.326782,296.294830 
	C382.812256,309.940887 367.177704,314.175903 351.571320,308.094940 
	C337.359863,302.557556 327.698517,287.905609 328.392303,272.942627 
	C329.156647,256.457001 339.695496,243.089157 355.468384,238.598297 
	C370.177979,234.410156 386.056244,240.074280 395.097015,252.734726 
	C404.413055,265.780640 404.209808,281.907074 394.326782,296.294830 
M359.285919,253.077560 
	C348.154266,257.246460 342.225281,266.153229 343.637299,276.585541 
	C345.078217,287.231659 353.249176,294.971313 363.900299,295.778961 
	C373.727295,296.524109 382.693024,290.071014 386.149048,279.234802 
	C389.878418,262.958374 375.857758,248.958893 359.285919,253.077560 
z"/>
<path fill="#030404" opacity="1.000000" stroke="none" 
	d="
M121.356003,249.367340 
	C133.218918,237.535828 146.902206,233.901733 162.189651,240.026611 
	C176.806290,245.882736 184.603317,257.299622 185.183594,273.130249 
	C185.734848,288.169159 177.160950,301.447083 163.406418,307.655884 
	C148.201736,314.519287 129.827835,309.825775 119.514992,296.444061 
	C108.732994,282.453583 109.356987,264.189148 121.356003,249.367340 
M169.901382,278.422760 
	C170.002304,276.601349 170.242264,274.775299 170.181976,272.959229 
	C169.734406,259.481171 156.834717,249.699997 143.252823,252.984222 
	C131.733124,256.767670 125.581322,265.965515 127.062073,277.191711 
	C128.379410,287.179016 137.157547,295.144653 147.558212,295.790741 
	C157.647858,296.417480 166.641968,289.616577 169.901382,278.422760 
z"/>
<path fill="#E3F6FC" opacity="1.000000" stroke="none" 
	d="
M277.084778,281.021637 
	C274.269196,290.119934 265.398193,296.319122 255.946136,295.793671 
	C245.585983,295.217712 237.273102,287.773560 235.371124,277.368835 
	C233.686722,268.154327 239.107834,258.120941 247.978485,254.174667 
	C249.323761,253.576218 250.812332,253.299896 252.562256,253.322266 
	C252.762878,256.515503 252.041458,259.391205 252.609390,261.984589 
	C255.410751,274.776764 263.439667,280.869324 277.084778,281.021637 
z"/>
<path fill="#FCFCFC" opacity="1.000000" stroke="none" 
	d="
M277.356201,280.753754 
	C263.439667,280.869324 255.410751,274.776764 252.609390,261.984589 
	C252.041458,259.391205 252.762878,256.515503 252.943466,253.366272 
	C266.598328,249.594406 280.236694,261.963135 278.479553,276.097809 
	C278.296173,277.572998 277.916351,279.023773 277.356201,280.753754 
z"/>
<path fill="#E3F6FC" opacity="1.000000" stroke="none" 
	d="
M385.834503,279.991821 
	C382.693024,290.071014 373.727295,296.524109 363.900299,295.778961 
	C353.249176,294.971313 345.078217,287.231659 343.637299,276.585541 
	C342.225281,266.153229 348.154266,257.246460 359.644775,253.551773 
	C360.223022,257.140503 359.977814,260.375305 360.747314,263.347412 
	C363.225037,272.917267 370.370178,281.433807 385.834503,279.991821 
z"/>
<path fill="#FCFCFC" opacity="1.000000" stroke="none" 
	d="
M385.991760,279.613312 
	C370.370178,281.433807 363.225037,272.917267 360.747314,263.347412 
	C359.977814,260.375305 360.223022,257.140503 360.007141,253.580948 
	C375.857758,248.958893 389.878418,262.958374 385.991760,279.613312 
z"/>
<path fill="#E3F6FC" opacity="1.000000" stroke="none" 
	d="
M169.541260,279.168182 
	C166.641968,289.616577 157.647858,296.417480 147.558212,295.790741 
	C137.157547,295.144653 128.379410,287.179016 127.062073,277.191711 
	C125.581322,265.965515 131.733124,256.767670 143.568420,253.407654 
	C142.024979,260.564789 146.012390,270.357452 151.674698,274.945587 
	C157.103073,279.344147 163.290054,279.046814 169.541260,279.168182 
z"/>
<path fill="#FCFCFC" opacity="1.000000" stroke="none" 
	d="
M169.721313,278.795471 
	C163.290054,279.046814 157.103073,279.344147 151.674698,274.945587 
	C146.012390,270.357452 142.024979,260.564789 143.940842,253.444214 
	C156.834717,249.699997 169.734406,259.481171 170.181976,272.959229 
	C170.242264,274.775299 170.002304,276.601349 169.721313,278.795471 
z"/>
</svg>