<svg version="1.1" id="Layer_1" xmlns="http://www.w3.org/2000/svg" xmlns:xlink="http://www.w3.org/1999/xlink" x="0px" y="0px"
	 width="100%" viewBox="0 0 512 512" enable-background="new 0 0 512 512" xml:space="preserve">

<path fill="#CCF5FC" opacity="1.000000" stroke="none" 
	d="
M311.000000,200.999649 
	C323.138458,200.999649 334.776917,200.999649 346.753235,200.999649 
	C346.842987,202.636520 346.989807,204.071625 346.990326,205.506790 
	C347.002960,240.986618 347.043976,276.466492 346.987518,311.946228 
	C346.932526,346.530365 320.549744,372.894470 285.950012,372.990631 
	C266.627808,373.044312 247.305222,373.046814 227.983047,372.990082 
	C193.403854,372.888519 167.055405,346.493774 167.010193,311.884705 
	C166.963837,276.404938 166.999756,240.925049 166.999664,205.445221 
	C166.999664,204.140991 166.999649,202.836761 166.999649,200.999649 
	C215.016129,200.999649 262.758057,200.999649 311.000000,200.999649 
M227.953354,310.333435 
	C228.298248,311.441223 228.578354,312.574158 228.997803,313.652954 
	C234.895844,328.823303 251.273148,336.556427 266.513306,331.384766 
	C281.998627,326.129913 290.473969,309.653351 285.682953,294.117737 
	C280.976257,278.855438 264.954285,270.004303 249.289215,274.012482 
	C233.884811,277.954010 224.427353,293.574249 227.953354,310.333435 
z"/>
<path fill="#CED2DE" opacity="1.000000" stroke="none" 
	d="
M360.002014,489.825134 
	C360.479767,493.732788 357.999939,492.989471 356.144806,492.991486 
	C339.146912,493.009949 322.149017,492.994537 305.151123,493.005920 
	C297.169525,493.011261 294.587006,494.916229 292.075439,502.753387 
	C284.059937,502.753387 275.960968,502.753387 267.878235,502.753387 
	C265.633606,496.021301 262.486298,493.069519 257.536255,493.015991 
	C252.527222,492.961823 249.336853,495.876709 246.997101,502.791077 
	C239.114197,502.791077 231.154984,502.791077 222.710037,502.791077 
	C221.357727,494.131927 215.192383,492.771393 207.416855,492.906128 
	C189.789429,493.211670 172.153091,493.002319 154.259918,493.002319 
	C154.259918,486.294281 154.259918,479.893738 154.259918,472.997681 
	C155.943787,472.997681 157.555527,472.997711 159.167267,472.997711 
	C178.164917,472.997528 197.162796,473.056366 216.160126,472.979919 
	C234.082336,472.907806 246.869843,460.007690 246.991608,442.018311 
	C247.027710,436.685883 247.005066,431.352997 246.996002,426.020325 
	C246.979614,416.381348 243.665848,413.259094 234.173218,412.944153 
	C222.383041,412.553040 210.380859,412.976013 198.865707,410.877350 
	C158.185760,403.463348 127.668114,366.578522 127.038223,325.291443 
	C126.942276,319.002899 127.024834,312.711639 127.024834,306.213623 
	C133.677429,306.213623 139.961884,306.213623 146.574738,306.213623 
	C146.998978,312.111755 147.162415,318.210510 147.915909,324.235443 
	C152.621475,361.860565 186.051575,392.195068 223.975632,392.886322 
	C245.965378,393.287140 267.974579,393.292999 289.964142,392.887451 
	C330.881439,392.132843 365.735413,357.270355 366.937469,316.343536 
	C367.034149,313.051575 366.950195,309.754303 366.950195,306.231689 
	C373.761963,306.231689 380.163025,306.231689 386.548004,306.231689 
	C392.171875,359.340393 363.788269,394.144745 327.693085,407.637787 
	C315.330597,412.259125 302.451355,413.402496 289.361481,413.022308 
	C285.199127,412.901367 281.023926,412.877716 276.865356,413.058014 
	C271.750031,413.279755 267.419128,416.661011 267.240356,421.489960 
	C266.914307,430.296417 266.407867,439.254089 267.604950,447.923859 
	C269.664001,462.836792 282.158386,472.895721 297.303528,472.970520 
	C317.962067,473.072540 338.621460,472.995972 360.002289,472.995972 
	C360.002289,478.500763 360.002289,483.920898 360.002014,489.825134 
z"/>
<path fill="#CFD3DF" opacity="1.000000" stroke="none" 
	d="
M261.000000,180.999573 
	C226.203369,180.999573 191.906754,180.999573 157.305511,180.999573 
	C157.305511,174.385422 157.305511,167.984467 157.305511,161.290237 
	C223.633102,161.290237 290.011322,161.290237 356.695190,161.290237 
	C356.695190,167.614731 356.695190,174.015701 356.695190,180.999573 
	C324.999603,180.999573 293.249786,180.999573 261.000000,180.999573 
z"/>
<path fill="#6B90A9" opacity="1.000000" stroke="none" 
	d="
M210.936981,54.065292 
	C205.800369,49.326553 200.929337,44.823689 196.070023,40.331669 
	C204.901550,29.567575 230.218918,20.052647 246.973923,21.349068 
	C246.973923,27.545259 247.025650,33.807194 246.913620,40.066196 
	C246.898254,40.925537 246.236374,41.933475 245.590546,42.596859 
	C238.293015,50.092785 230.940170,57.534855 223.319290,65.278778 
	C219.023087,61.386471 215.112823,57.843819 210.936981,54.065292 
z"/>
<path fill="#6C91AB" opacity="1.000000" stroke="none" 
	d="
M302.590942,29.374056 
	C307.974640,32.701283 313.038086,35.837120 318.809174,39.411205 
	C309.211853,48.234097 300.239532,56.482418 291.397217,64.611237 
	C283.466309,56.888046 275.836792,49.509544 268.300171,42.037415 
	C267.572571,41.316044 267.079712,40.020725 267.058502,38.980011 
	C266.940582,33.188602 267.001892,27.393545 267.001892,21.127689 
	C279.698181,20.878349 291.219025,23.949392 302.590942,29.374056 
z"/>
<path fill="#6B8FA9" opacity="1.000000" stroke="none" 
	d="
M181.703308,100.389664 
	C178.903763,97.068451 176.602737,93.733513 173.701202,91.047211 
	C169.057999,86.748444 168.130051,82.145004 170.831741,76.470299 
	C174.229874,69.332733 177.389313,62.081524 181.119904,53.845829 
	C190.946289,62.833622 199.781952,70.915230 208.421295,78.817291 
	C200.198242,86.994484 192.340195,94.808723 183.522949,103.576797 
	C183.171127,102.933182 182.551743,101.800095 181.703308,100.389664 
z"/>
<path fill="#6B8FA9" opacity="1.000000" stroke="none" 
	d="
M305.940674,79.771683 
	C314.298615,71.181343 322.835876,62.914452 331.712128,54.319344 
	C338.453491,63.265198 342.438416,72.621857 344.811829,82.687576 
	C345.094452,83.886177 344.480957,85.683350 343.656860,86.691208 
	C339.138885,92.216690 334.425659,97.582550 329.664886,103.136971 
	C321.705017,95.347153 313.912537,87.721146 305.940674,79.771683 
z"/>
<path fill="#6C90AA" opacity="1.000000" stroke="none" 
	d="
M221.211700,95.230835 
	C222.788879,93.224930 223.987076,92.866379 225.831421,94.645004 
	C230.970551,99.601021 236.303284,104.356270 242.140625,109.725235 
	C232.268951,118.814392 222.568604,127.745811 212.432266,137.078674 
	C207.442078,131.144333 202.587189,125.370888 197.299637,119.082924 
	C205.267258,111.135674 213.116150,103.306839 221.211700,95.230835 
z"/>
<path fill="#6C90AA" opacity="1.000000" stroke="none" 
	d="
M284.268372,98.270889 
	C286.369476,96.368942 288.207764,94.704308 289.656494,93.392471 
	C298.442474,102.041504 307.033997,110.499069 315.938446,119.264702 
	C311.235748,124.762093 306.317474,130.511459 301.114777,136.593338 
	C291.220795,127.536957 281.694214,118.816917 271.816681,109.775597 
	C276.050690,105.861664 280.028137,102.184929 284.268372,98.270889 
z"/>
<path fill="#F7F7F7" opacity="1.000000" stroke="none" 
	d="
M134.986191,265.997437 
	C139.124893,265.997437 142.766724,265.997437 146.704773,265.997437 
	C146.704773,272.590393 146.704773,278.991180 146.704773,285.895050 
	C136.409973,285.895050 125.989792,286.156403 115.592468,285.782440 
	C110.552795,285.601227 106.920448,280.747833 107.026611,275.780060 
	C107.137146,270.607239 111.108368,266.314087 116.519302,266.086334 
	C122.499962,265.834625 128.498535,266.008759 134.986191,265.997437 
z"/>
<path fill="#F7F7F7" opacity="1.000000" stroke="none" 
	d="
M387.971680,265.997437 
	C391.460907,266.008301 394.466156,265.865662 397.448761,266.063538 
	C402.856293,266.422272 406.842896,270.583893 406.970947,275.752136 
	C407.103821,281.114136 403.050385,285.767700 397.434204,285.901703 
	C387.480255,286.139191 377.516541,285.968323 367.277832,285.968323 
	C367.277832,279.371674 367.277832,272.972961 367.277832,265.997437 
	C373.964813,265.997437 380.721161,265.997437 387.971680,265.997437 
z"/>
<path fill="#6C90AA" opacity="1.000000" stroke="none" 
	d="
M271.686432,82.713387 
	C266.669830,87.285423 261.910889,91.619118 256.946564,96.139847 
	C250.494354,90.225975 244.288681,84.538078 238.213150,78.969452 
	C244.632309,72.589211 250.835678,66.423454 256.563812,60.730057 
	C262.593689,66.722572 268.864594,72.954636 275.243134,79.293671 
	C274.561066,79.951416 273.252563,81.213226 271.686432,82.713387 
z"/>
<path fill="#6B8FA9" opacity="1.000000" stroke="none" 
	d="
M262.585907,128.381363 
	C266.989410,132.448654 271.134186,136.271683 275.825348,140.598694 
	C263.123108,140.598694 251.045349,140.598694 238.164078,140.598694 
	C244.592285,134.696091 250.606567,129.173584 256.902985,123.391983 
	C258.890900,125.131027 260.609039,126.634064 262.585907,128.381363 
z"/>
<path fill="#6C90AA" opacity="1.000000" stroke="none" 
	d="
M324.756470,140.505890 
	C331.760895,131.657242 338.907043,123.149124 346.668274,113.908707 
	C346.668274,123.374580 346.668274,131.878586 346.668274,140.846436 
	C339.413879,140.846436 332.156036,140.846436 324.756470,140.505890 
z"/>
<path fill="#6C90AA" opacity="1.000000" stroke="none" 
	d="
M177.933075,127.057457 
	C181.734375,131.607895 185.319458,135.878098 189.406311,140.745941 
	C181.475250,140.745941 174.469650,140.745941 167.262024,140.745941 
	C167.262024,132.172791 167.262024,123.837776 167.262024,114.392303 
	C171.179901,119.033470 174.448380,122.905342 177.933075,127.057457 
z"/>
<path fill="#020303" opacity="1.000000" stroke="none" 
	d="
M227.875397,309.921204 
	C224.427353,293.574249 233.884811,277.954010 249.289215,274.012482 
	C264.954285,270.004303 280.976257,278.855438 285.682953,294.117737 
	C290.473969,309.653351 281.998627,326.129913 266.513306,331.384766 
	C251.273148,336.556427 234.895844,328.823303 228.997803,313.652954 
	C228.578354,312.574158 228.298248,311.441223 227.875397,309.921204 
M250.241638,310.299011 
	C254.365021,313.686981 258.752533,314.095825 263.013824,310.837799 
	C266.651489,308.056519 267.947083,304.219482 266.355865,299.746643 
	C264.939728,295.765991 261.902313,292.839111 257.866272,293.292389 
	C254.630585,293.655731 250.843048,295.502350 248.726334,297.932617 
	C245.552155,301.577026 246.588959,306.022919 250.241638,310.299011 
z"/>
<path fill="#F87993" opacity="1.000000" stroke="none" 
	d="
M249.969482,310.026978 
	C246.588959,306.022919 245.552155,301.577026 248.726334,297.932617 
	C250.843048,295.502350 254.630585,293.655731 257.866272,293.292389 
	C261.902313,292.839111 264.939728,295.765991 266.355865,299.746643 
	C267.947083,304.219482 266.651489,308.056519 263.013824,310.837799 
	C258.752533,314.095825 254.365021,313.686981 249.969482,310.026978 
z"/>
</svg>