<svg version="1.1" id="Layer_1" xmlns="http://www.w3.org/2000/svg" xmlns:xlink="http://www.w3.org/1999/xlink" x="0px" y="0px"
	 width="100%" viewBox="0 0 512 512" enable-background="new 0 0 512 512" xml:space="preserve">
<path fill="#000001" opacity="1.000000" stroke="none" 
	d="
M0.999998,429.000000 
	C1.000000,314.645782 1.000000,200.291550 1.389752,85.326134 
	C2.795118,79.995369 3.527809,75.193306 4.875548,70.570549 
	C10.569654,51.039722 21.489897,34.919022 37.342701,22.211905 
	C45.537773,15.642984 54.447285,10.168811 64.509964,6.919320 
	C71.271996,4.735694 78.165382,2.958843 85.000000,1.000000 
	C199.354233,1.000000 313.708466,1.000000 428.673889,1.389754 
	C434.004639,2.795127 438.806702,3.527834 443.429443,4.875568 
	C462.960297,10.569653 479.080963,21.489891 491.788086,37.342705 
	C498.356995,45.537788 503.831146,54.447300 507.080627,64.509995 
	C509.264221,71.272034 511.041138,78.165390 513.000000,85.000000 
	C513.000000,199.354233 513.000000,313.708466 512.610229,428.673889 
	C511.204834,434.004639 510.472168,438.806702 509.124451,443.429443 
	C503.430359,462.960297 492.510101,479.080963 476.657288,491.788147 
	C468.462219,498.357086 459.552643,503.831177 449.489990,507.080750 
	C442.727997,509.264435 435.834625,511.041199 429.000000,513.000000 
	C398.312439,513.000000 367.624878,513.000000 336.377441,512.643799 
	C332.333221,510.010193 330.889069,507.048187 330.898895,502.640717 
	C331.044098,437.486084 330.998566,372.331085 330.999451,307.176147 
	C330.999573,299.474915 334.538544,296.008240 342.460510,296.002777 
	C360.123993,295.990601 377.787476,296.003876 395.450958,295.989777 
	C396.895264,295.988617 398.339478,295.858032 399.615082,295.795776 
	C401.212036,279.076691 402.776215,262.700806 404.371307,246.001022 
	C401.814606,246.001022 400.173096,246.001022 398.531555,246.001022 
	C380.701447,246.001022 362.865692,246.267380 345.043518,245.891479 
	C335.786560,245.696228 330.360413,243.890717 330.841339,231.870682 
	C331.480377,215.899124 331.078613,199.882217 330.974915,183.885773 
	C330.884766,169.980240 342.993561,157.803253 357.078949,157.969223 
	C369.241730,158.112549 381.407562,157.998993 393.572021,157.998993 
	C397.332397,157.998993 401.092773,157.998978 404.682739,157.998978 
	C404.682739,141.298111 404.682739,125.227097 404.682739,109.001038 
	C385.884369,109.001038 367.398499,108.791451 348.920837,109.091019 
	C339.919708,109.236946 330.803772,109.591164 321.966461,111.142433 
	C298.037079,115.342896 281.372162,128.494553 272.838867,151.857300 
	C268.434540,163.915680 267.749664,176.355988 267.175354,188.770096 
	C266.452271,204.400482 266.893036,220.090912 267.068390,235.752808 
	C267.119385,240.308884 265.386566,243.319778 261.259857,244.865845 
	C259.483948,245.531189 257.501007,245.943115 255.609360,245.953217 
	C239.838043,246.037430 224.066071,246.001022 208.250671,246.001022 
	C208.250671,262.900543 208.250671,279.303619 208.250671,295.861145 
	C209.126724,295.916748 209.764297,295.992218 210.401917,295.992493 
	C225.732498,295.999542 241.063171,295.964417 256.393585,296.014435 
	C263.314880,296.036987 266.993347,299.752747 266.998352,306.530579 
	C267.007660,319.194946 267.001648,331.859344 267.000763,344.523712 
	C267.000275,351.987000 264.380280,354.776520 256.670105,355.043274 
	C249.299240,352.984161 247.055145,350.126678 247.011353,342.826843 
	C246.959610,334.200165 246.999207,325.572937 246.999207,316.551300 
	C244.683792,316.551300 242.884476,316.551300 241.085159,316.551270 
	C227.752426,316.551147 214.419418,316.604523 201.087067,316.532776 
	C191.579697,316.481628 188.014847,312.914642 188.005875,303.609802 
	C187.984818,281.777466 187.980148,259.945068 188.008469,238.112778 
	C188.019867,229.324585 191.586609,225.570145 200.364792,225.485855 
	C214.029587,225.354630 227.696564,225.457901 241.362579,225.438446 
	C243.126923,225.435928 244.891068,225.294220 246.999008,225.201935 
	C246.999008,212.174728 246.757706,199.529221 247.084564,186.898407 
	C247.299423,178.595444 247.621170,170.182388 249.120209,162.044312 
	C257.267761,117.811897 286.512726,92.509972 328.622650,89.516006 
	C357.152374,87.487579 385.920746,88.743118 414.582642,88.696358 
	C421.674622,88.684792 425.648346,92.364777 425.714569,99.379547 
	C425.928528,122.042969 425.936707,144.711151 425.706970,167.374283 
	C425.634064,174.564133 421.467438,178.082733 414.074646,178.113983 
	C396.909058,178.186554 379.742950,178.132629 362.577057,178.149109 
	C360.914917,178.150711 359.246002,178.214157 357.592194,178.373352 
	C353.689941,178.749008 351.311371,181.053696 351.262207,184.845657 
	C351.090240,198.114777 351.195587,211.387482 351.195587,225.009384 
	C353.174591,225.009384 354.807892,225.009384 356.441223,225.009384 
	C375.107056,225.009384 393.772858,225.002319 412.438690,225.012054 
	C423.149231,225.017639 426.902985,229.118805 425.821045,239.800568 
	C423.639496,261.338501 421.396210,282.870178 419.165558,304.403107 
	C418.210083,313.626587 415.057861,316.506683 405.641113,316.536285 
	C389.308685,316.587616 372.975952,316.551025 356.643372,316.551300 
	C354.882721,316.551331 353.122070,316.551300 351.365417,316.551300 
	C351.365417,375.734680 351.365417,434.284119 351.365417,492.998505 
	C372.386505,492.998505 393.043732,493.068512 413.700378,492.984192 
	C458.806824,492.800079 492.944275,458.614136 492.975677,413.396057 
	C493.048126,309.067535 493.059570,204.738861 492.970245,100.410332 
	C492.931580,55.266087 458.680389,21.062681 413.506805,21.027348 
	C309.178284,20.945744 204.849609,20.947414 100.521072,21.026541 
	C55.335133,21.060810 21.069950,55.247040 21.030540,100.382431 
	C20.939299,204.877594 20.898998,309.373199 21.186769,413.867645 
	C21.211107,422.704681 22.652637,431.938965 25.481852,440.296051 
	C36.434090,472.647339 65.634232,492.909943 100.271683,492.975891 
	C147.769363,493.066345 195.267319,492.998749 242.765167,492.998901 
	C244.046097,492.998932 245.327026,492.998901 246.998978,492.998901 
	C246.998978,490.878693 246.998978,489.251099 246.998978,487.623535 
	C246.998993,468.624390 246.998688,449.625275 246.999084,430.626129 
	C246.999298,420.073975 247.930847,418.622894 257.447388,414.966522 
	C265.504028,417.192993 267.000549,419.059998 267.000763,426.446838 
	C267.001465,450.926758 266.845428,475.408447 267.122833,499.885223 
	C267.183563,505.242249 266.361908,509.656616 262.000000,513.000000 
	C203.312439,513.000000 144.624878,513.000000 85.326134,512.610229 
	C79.995369,511.204865 75.193291,510.472229 70.570557,509.124481 
	C51.039730,503.430389 34.919025,492.510132 22.211912,476.657288 
	C15.643005,468.462250 10.168826,459.552734 6.919322,449.490051 
	C4.735686,442.728027 2.958841,435.834625 0.999998,429.000000 
z"/>
<path fill="#FFFFFF" opacity="1.000000" stroke="none" 
	d="
M262.468658,513.000000 
	C266.361908,509.656616 267.183563,505.242249 267.122833,499.885223 
	C266.845428,475.408447 267.001465,450.926758 267.000763,426.446838 
	C267.000549,419.059998 265.504028,417.192993 257.421021,414.503052 
	C257.028809,408.362274 257.045990,402.713257 257.444336,397.035767 
	C265.799194,394.727783 267.786835,391.925079 267.002472,384.067261 
	C266.539948,379.433746 262.752319,376.325989 257.036072,375.446655 
	C257.017700,368.371857 257.022614,361.759369 257.027557,355.146851 
	C264.380280,354.776520 267.000275,351.987000 267.000763,344.523712 
	C267.001648,331.859344 267.007660,319.194946 266.998352,306.530579 
	C266.993347,299.752747 263.314880,296.036987 256.393585,296.014435 
	C241.063171,295.964417 225.732498,295.999542 210.401917,295.992493 
	C209.764297,295.992218 209.126724,295.916748 208.250671,295.861145 
	C208.250671,279.303619 208.250671,262.900543 208.250671,246.001022 
	C224.066071,246.001022 239.838043,246.037430 255.609360,245.953217 
	C257.501007,245.943115 259.483948,245.531189 261.259857,244.865845 
	C265.386566,243.319778 267.119385,240.308884 267.068390,235.752808 
	C266.893036,220.090912 266.452271,204.400482 267.175354,188.770096 
	C267.749664,176.355988 268.434540,163.915680 272.838867,151.857300 
	C281.372162,128.494553 298.037079,115.342896 321.966461,111.142433 
	C330.803772,109.591164 339.919708,109.236946 348.920837,109.091019 
	C367.398499,108.791451 385.884369,109.001038 404.682739,109.001038 
	C404.682739,125.227097 404.682739,141.298111 404.682739,157.998978 
	C401.092773,157.998978 397.332397,157.998993 393.572021,157.998993 
	C381.407562,157.998993 369.241730,158.112549 357.078949,157.969223 
	C342.993561,157.803253 330.884766,169.980240 330.974915,183.885773 
	C331.078613,199.882217 331.480377,215.899124 330.841339,231.870682 
	C330.360413,243.890717 335.786560,245.696228 345.043518,245.891479 
	C362.865692,246.267380 380.701447,246.001022 398.531555,246.001022 
	C400.173096,246.001022 401.814606,246.001022 404.371307,246.001022 
	C402.776215,262.700806 401.212036,279.076691 399.615082,295.795776 
	C398.339478,295.858032 396.895264,295.988617 395.450958,295.989777 
	C377.787476,296.003876 360.123993,295.990601 342.460510,296.002777 
	C334.538544,296.008240 330.999573,299.474915 330.999451,307.176147 
	C330.998566,372.331085 331.044098,437.486084 330.898895,502.640717 
	C330.889069,507.048187 332.333221,510.010193 335.908752,512.643799 
	C311.645782,513.000000 287.291534,513.000000 262.468658,513.000000 
z"/>
<path fill="#FFFFFF" opacity="1.000000" stroke="none" 
	d="
M84.531342,1.000000 
	C78.165382,2.958843 71.271996,4.735694 64.509964,6.919320 
	C54.447285,10.168811 45.537773,15.642984 37.342701,22.211905 
	C21.489897,34.919022 10.569654,51.039722 4.875548,70.570549 
	C3.527809,75.193306 2.795118,79.995369 1.389752,84.857475 
	C1.000000,57.073105 1.000000,29.146208 1.000000,1.000000 
	C28.687176,1.000000 56.374928,1.000000 84.531342,1.000000 
z"/>
<path fill="#FFFFFF" opacity="1.000000" stroke="none" 
	d="
M513.000000,84.531342 
	C511.041138,78.165390 509.264221,71.272034 507.080627,64.509995 
	C503.831146,54.447300 498.356995,45.537788 491.788086,37.342705 
	C479.080963,21.489891 462.960297,10.569653 443.429443,4.875568 
	C438.806702,3.527834 434.004639,2.795127 429.142517,1.389754 
	C456.926910,1.000000 484.853790,1.000000 513.000000,1.000000 
	C513.000000,28.687176 513.000000,56.374928 513.000000,84.531342 
z"/>
<path fill="#FFFFFF" opacity="1.000000" stroke="none" 
	d="
M0.999998,429.468658 
	C2.958841,435.834625 4.735686,442.728027 6.919322,449.490051 
	C10.168826,459.552734 15.643005,468.462250 22.211912,476.657288 
	C34.919025,492.510132 51.039730,503.430389 70.570557,509.124481 
	C75.193291,510.472229 79.995369,511.204865 84.857475,512.610229 
	C57.073101,513.000000 29.146202,513.000000 1.000000,513.000000 
	C1.000000,485.312836 1.000000,457.625061 0.999998,429.468658 
z"/>
<path fill="#FFFFFF" opacity="1.000000" stroke="none" 
	d="
M429.468658,513.000000 
	C435.834625,511.041199 442.727997,509.264435 449.489990,507.080750 
	C459.552643,503.831177 468.462219,498.357086 476.657288,491.788147 
	C492.510101,479.080963 503.430359,462.960297 509.124451,443.429443 
	C510.472168,438.806702 511.204834,434.004639 512.610229,429.142517 
	C513.000000,456.926910 513.000000,484.853790 513.000000,513.000000 
	C485.312836,513.000000 457.625061,513.000000 429.468658,513.000000 
z"/>
<path fill="#6E87F5" opacity="1.000000" stroke="none" 
	d="
M256.670105,355.043274 
	C257.022614,361.759369 257.017700,368.371857 256.737549,375.662109 
	C250.380249,377.968536 247.227722,381.242950 247.059448,386.106323 
	C246.887680,391.070099 249.936081,394.448639 256.339539,396.433685 
	C256.619049,396.520325 256.823669,396.848541 257.063202,397.064209 
	C257.045990,402.713257 257.028809,408.362274 257.038025,414.474792 
	C247.930847,418.622894 246.999298,420.073975 246.999084,430.626129 
	C246.998688,449.625275 246.998993,468.624390 246.998978,487.623535 
	C246.998978,489.251099 246.998978,490.878693 246.998978,492.998901 
	C245.327026,492.998901 244.046097,492.998932 242.765167,492.998901 
	C195.267319,492.998749 147.769363,493.066345 100.271683,492.975891 
	C65.634232,492.909943 36.434090,472.647339 25.481852,440.296051 
	C22.652637,431.938965 21.211107,422.704681 21.186769,413.867645 
	C20.898998,309.373199 20.939299,204.877594 21.030540,100.382431 
	C21.069950,55.247040 55.335133,21.060810 100.521072,21.026541 
	C204.849609,20.947414 309.178284,20.945744 413.506805,21.027348 
	C458.680389,21.062681 492.931580,55.266087 492.970245,100.410332 
	C493.059570,204.738861 493.048126,309.067535 492.975677,413.396057 
	C492.944275,458.614136 458.806824,492.800079 413.700378,492.984192 
	C393.043732,493.068512 372.386505,492.998505 351.365417,492.998505 
	C351.365417,434.284119 351.365417,375.734680 351.365417,316.551300 
	C353.122070,316.551300 354.882721,316.551331 356.643372,316.551300 
	C372.975952,316.551025 389.308685,316.587616 405.641113,316.536285 
	C415.057861,316.506683 418.210083,313.626587 419.165558,304.403107 
	C421.396210,282.870178 423.639496,261.338501 425.821045,239.800568 
	C426.902985,229.118805 423.149231,225.017639 412.438690,225.012054 
	C393.772858,225.002319 375.107056,225.009384 356.441223,225.009384 
	C354.807892,225.009384 353.174591,225.009384 351.195587,225.009384 
	C351.195587,211.387482 351.090240,198.114777 351.262207,184.845657 
	C351.311371,181.053696 353.689941,178.749008 357.592194,178.373352 
	C359.246002,178.214157 360.914917,178.150711 362.577057,178.149109 
	C379.742950,178.132629 396.909058,178.186554 414.074646,178.113983 
	C421.467438,178.082733 425.634064,174.564133 425.706970,167.374283 
	C425.936707,144.711151 425.928528,122.042969 425.714569,99.379547 
	C425.648346,92.364777 421.674622,88.684792 414.582642,88.696358 
	C385.920746,88.743118 357.152374,87.487579 328.622650,89.516006 
	C286.512726,92.509972 257.267761,117.811897 249.120209,162.044312 
	C247.621170,170.182388 247.299423,178.595444 247.084564,186.898407 
	C246.757706,199.529221 246.999008,212.174728 246.999008,225.201935 
	C244.891068,225.294220 243.126923,225.435928 241.362579,225.438446 
	C227.696564,225.457901 214.029587,225.354630 200.364792,225.485855 
	C191.586609,225.570145 188.019867,229.324585 188.008469,238.112778 
	C187.980148,259.945068 187.984818,281.777466 188.005875,303.609802 
	C188.014847,312.914642 191.579697,316.481628 201.087067,316.532776 
	C214.419418,316.604523 227.752426,316.551147 241.085159,316.551270 
	C242.884476,316.551300 244.683792,316.551300 246.999207,316.551300 
	C246.999207,325.572937 246.959610,334.200165 247.011353,342.826843 
	C247.055145,350.126678 249.299240,352.984161 256.670105,355.043274 
M69.001060,161.500000 
	C69.000916,146.199707 69.034729,130.899323 68.986023,115.599190 
	C68.962326,108.155128 65.268135,103.789459 59.134563,103.714592 
	C52.944942,103.639046 49.033691,107.993416 49.019646,115.330055 
	C48.968704,141.939194 48.969440,168.548569 49.019173,195.157715 
	C49.032539,202.310425 53.182976,207.011383 59.114174,206.930923 
	C65.030159,206.850677 68.948875,202.169128 68.986298,194.929947 
	C69.042183,184.120224 69.000969,173.310013 69.001060,161.500000 
M67.363068,245.655807 
	C70.803680,237.543121 66.197311,229.827606 58.278496,230.567734 
	C53.430546,231.020844 50.336651,233.807983 49.341476,238.527161 
	C48.381927,243.077393 50.195240,246.656586 54.142990,249.037094 
	C58.277016,251.529922 62.692238,250.527512 67.363068,245.655807 
z"/>
<path fill="#010103" opacity="1.000000" stroke="none" 
	d="
M257.444336,397.035767 
	C256.823669,396.848541 256.619049,396.520325 256.339539,396.433685 
	C249.936081,394.448639 246.887680,391.070099 247.059448,386.106323 
	C247.227722,381.242950 250.380249,377.968536 256.760803,376.124390 
	C262.752319,376.325989 266.539948,379.433746 267.002472,384.067261 
	C267.786835,391.925079 265.799194,394.727783 257.444336,397.035767 
z"/>
<path fill="#000001" opacity="1.000000" stroke="none" 
	d="
M69.001060,162.000000 
	C69.000969,173.310013 69.042183,184.120224 68.986298,194.929947 
	C68.948875,202.169128 65.030159,206.850677 59.114174,206.930923 
	C53.182976,207.011383 49.032539,202.310425 49.019173,195.157715 
	C48.969440,168.548569 48.968704,141.939194 49.019646,115.330055 
	C49.033691,107.993416 52.944942,103.639046 59.134563,103.714592 
	C65.268135,103.789459 68.962326,108.155128 68.986023,115.599190 
	C69.034729,130.899323 69.000916,146.199707 69.001060,162.000000 
z"/>
<path fill="#030306" opacity="1.000000" stroke="none" 
	d="
M67.158539,245.978424 
	C62.692238,250.527512 58.277016,251.529922 54.142990,249.037094 
	C50.195240,246.656586 48.381927,243.077393 49.341476,238.527161 
	C50.336651,233.807983 53.430546,231.020844 58.278496,230.567734 
	C66.197311,229.827606 70.803680,237.543121 67.158539,245.978424 
z"/>
</svg>