<svg version="1.1" id="Layer_1" xmlns="http://www.w3.org/2000/svg" xmlns:xlink="http://www.w3.org/1999/xlink" x="0px" y="0px"
	 width="100%" viewBox="0 0 512 512" enable-background="new 0 0 512 512" xml:space="preserve">
<path fill="#010001" opacity="1.000000" stroke="none" 
	d="
M0.999999,380.000000 
	C1.000000,298.312439 1.000000,216.624878 1.395453,134.318680 
	C3.255013,114.102715 9.743379,95.941772 18.866760,78.850639 
	C28.327463,61.127594 41.256950,45.965294 57.076977,33.459599 
	C74.430977,19.741306 93.739037,9.915447 115.409752,5.006799 
	C121.591843,3.606488 127.802460,2.332119 134.000000,1.000000 
	C215.687561,1.000000 297.375122,1.000000 379.681335,1.395457 
	C399.897308,3.254980 418.058258,9.743395 435.149384,18.866760 
	C452.872437,28.327440 468.034668,41.257004 480.540375,57.076996 
	C494.258698,74.430977 504.084564,93.739044 508.993256,115.409760 
	C510.393585,121.591835 511.667877,127.802467 513.000000,134.000000 
	C513.000000,215.687561 513.000000,297.375122 512.604553,379.681305 
	C510.745026,399.897278 504.256592,418.058197 495.133270,435.149353 
	C485.672607,452.872437 472.743042,468.034698 456.923004,480.540375 
	C439.568970,494.258636 420.260956,504.084656 398.590179,508.993225 
	C392.408142,510.393494 386.197510,511.667877 380.000000,513.000000 
	C298.312439,513.000000 216.624878,513.000000 134.318680,512.604553 
	C114.102707,510.744995 95.941750,504.256622 78.850632,495.133240 
	C61.127594,485.672516 45.965286,472.743042 33.459610,456.923004 
	C19.741344,439.568970 9.915425,420.260956 5.006797,398.590240 
	C3.606489,392.408142 2.332118,386.197540 0.999999,380.000000 
M39.276924,429.187927 
	C65.444794,470.790131 103.168030,492.492462 152.237900,492.865356 
	C222.051041,493.395874 291.871216,493.007538 361.688385,492.993958 
	C375.602722,492.991241 389.300110,491.145142 402.511292,486.805786 
	C457.214081,468.837830 492.842773,419.643066 492.965210,361.696686 
	C493.112762,291.879822 493.009918,222.062424 492.991882,152.245270 
	C492.988251,138.161957 491.164398,124.277298 486.614197,110.956818 
	C467.759644,55.761105 419.343781,21.088148 361.130402,21.019011 
	C291.646576,20.936489 222.162613,20.997797 152.678696,21.001080 
	C138.594208,21.001743 124.723373,22.807001 111.363899,27.239307 
	C56.693523,45.377449 21.217342,94.205299 21.048534,151.936356 
	C20.843901,221.919556 20.949032,291.903870 21.028101,361.887573 
	C21.054958,385.658813 26.728415,407.998657 39.276924,429.187927 
z"/>
<path fill="#FFFFFF" opacity="1.000000" stroke="none" 
	d="
M513.000000,133.531342 
	C511.667877,127.802467 510.393585,121.591835 508.993256,115.409760 
	C504.084564,93.739044 494.258698,74.430977 480.540375,57.076996 
	C468.034668,41.257004 452.872437,28.327440 435.149384,18.866760 
	C418.058258,9.743395 399.897308,3.254980 380.149963,1.395457 
	C424.260315,1.000000 468.520630,1.000000 513.000000,1.000000 
	C513.000000,45.020653 513.000000,89.041664 513.000000,133.531342 
z"/>
<path fill="#FFFFFF" opacity="1.000000" stroke="none" 
	d="
M0.999999,380.468658 
	C2.332118,386.197540 3.606489,392.408142 5.006797,398.590240 
	C9.915425,420.260956 19.741344,439.568970 33.459610,456.923004 
	C45.965286,472.743042 61.127594,485.672516 78.850632,495.133240 
	C95.941750,504.256622 114.102707,510.744995 133.850021,512.604553 
	C89.739693,513.000000 45.479382,513.000000 1.000000,513.000000 
	C1.000000,468.979340 1.000000,424.958344 0.999999,380.468658 
z"/>
<path fill="#FFFFFF" opacity="1.000000" stroke="none" 
	d="
M380.468658,513.000000 
	C386.197510,511.667877 392.408142,510.393494 398.590179,508.993225 
	C420.260956,504.084656 439.568970,494.258636 456.923004,480.540375 
	C472.743042,468.034698 485.672607,452.872437 495.133270,435.149353 
	C504.256592,418.058197 510.745026,399.897278 512.604553,380.149963 
	C513.000000,424.260315 513.000000,468.520630 513.000000,513.000000 
	C468.979340,513.000000 424.958344,513.000000 380.468658,513.000000 
z"/>
<path fill="#FFFFFF" opacity="1.000000" stroke="none" 
	d="
M133.531342,1.000000 
	C127.802460,2.332119 121.591843,3.606488 115.409752,5.006799 
	C93.739037,9.915447 74.430977,19.741306 57.076977,33.459599 
	C41.256950,45.965294 28.327463,61.127594 18.866760,78.850639 
	C9.743379,95.941772 3.255013,114.102715 1.395453,133.850021 
	C1.000000,89.739677 1.000000,45.479362 1.000000,1.000000 
	C45.020653,1.000000 89.041664,1.000000 133.531342,1.000000 
z"/>
<path fill="#E58BBD" opacity="1.000000" stroke="none" 
	d="
M39.104958,428.864563 
	C26.728415,407.998657 21.054958,385.658813 21.028101,361.887573 
	C20.949032,291.903870 20.843901,221.919556 21.048534,151.936356 
	C21.217342,94.205299 56.693523,45.377449 111.363899,27.239307 
	C124.723373,22.807001 138.594208,21.001743 152.678696,21.001080 
	C222.162613,20.997797 291.646576,20.936489 361.130402,21.019011 
	C419.343781,21.088148 467.759644,55.761105 486.614197,110.956818 
	C491.164398,124.277298 492.988251,138.161957 492.991882,152.245270 
	C493.009918,222.062424 493.112762,291.879822 492.965210,361.696686 
	C492.842773,419.643066 457.214081,468.837830 402.511292,486.805786 
	C389.300110,491.145142 375.602722,492.991241 361.688385,492.993958 
	C291.871216,493.007538 222.051041,493.395874 152.237900,492.865356 
	C103.168030,492.492462 65.444794,470.790131 39.104958,428.864563 
M292.851166,459.702301 
	C294.302277,466.452850 297.455780,468.970734 304.845795,468.986603 
	C324.174744,469.028046 343.507324,469.209534 362.831177,468.892639 
	C370.285797,468.770416 377.886200,468.189514 385.138123,466.561340 
	C435.061310,455.352661 468.858398,413.127441 468.964478,361.819550 
	C469.108826,292.001953 469.009766,222.183853 468.991760,152.365982 
	C468.988647,140.298492 467.369263,128.459015 463.268005,117.063042 
	C447.176086,72.349358 408.497162,45.053013 361.018982,45.013863 
	C291.701019,44.956707 222.382812,44.921909 153.065292,45.102871 
	C144.954849,45.124050 136.652420,45.706917 128.771500,47.494919 
	C78.500252,58.900322 45.078857,101.048752 45.019108,152.781906 
	C44.938854,222.266418 44.925793,291.751312 45.099834,361.235504 
	C45.119743,369.183167 45.714989,377.305450 47.418385,385.044159 
	C58.288654,434.428986 100.373154,468.396729 151.083466,468.963074 
	C170.576721,469.180817 190.074478,469.022675 209.570099,468.989746 
	C217.339737,468.976624 220.178253,466.652466 223.045227,458.996521 
	C230.987747,458.988464 238.930267,458.980408 247.062073,459.698212 
	C248.782196,465.746582 252.340317,469.013336 257.126190,468.937988 
	C262.101318,468.859680 265.434753,465.537994 268.048309,458.996338 
	C276.243103,458.981537 284.437866,458.966736 292.851166,459.702301 
z"/>
<path fill="#FEFEFE" opacity="1.000000" stroke="none" 
	d="
M246.872787,458.972351 
	C238.930267,458.980408 230.987747,458.988464 222.484161,458.627899 
	C219.963318,451.259796 217.126007,449.027069 209.792557,449.012085 
	C190.799362,448.973297 171.805939,449.043121 152.812820,448.990417 
	C102.741936,448.851471 65.072029,411.196198 65.019363,361.084229 
	C64.946518,291.775543 64.959587,222.466690 65.014908,153.157974 
	C65.055153,102.735352 102.688057,65.059967 153.070419,65.016167 
	C222.379120,64.955910 291.687988,64.951775 360.996674,65.017555 
	C411.361145,65.065361 448.948303,102.761833 448.986053,153.225250 
	C449.037781,222.367355 449.035004,291.509613 448.935211,360.651611 
	C448.926605,366.616699 448.541290,372.678345 447.445068,378.529144 
	C439.729004,419.710938 404.902710,448.596527 362.618988,448.968231 
	C343.293976,449.138123 323.966187,448.964783 304.639832,449.016327 
	C297.240265,449.036072 294.149139,451.686554 292.632660,458.951935 
	C284.437866,458.966736 276.243103,458.981537 267.486664,458.625366 
	C265.199310,452.227905 261.653992,448.984070 256.875183,449.059174 
	C251.946030,449.136658 248.594696,452.458069 246.872787,458.972351 
M189.074051,148.574249 
	C185.173294,151.429169 181.272522,154.284073 176.864334,156.759323 
	C174.973877,155.809433 173.175919,154.425827 171.173935,153.998856 
	C166.850647,153.076813 163.408157,154.824860 160.956421,158.509430 
	C157.878494,163.135086 159.207489,167.318558 161.670013,171.854599 
	C158.089539,176.296402 154.509064,180.738205 150.138962,185.034821 
	C143.089050,182.833557 139.434006,184.309052 135.842606,191.039139 
	C121.193169,218.491516 115.931999,247.556213 120.883850,278.381012 
	C126.601875,313.975098 143.629929,343.098724 171.890854,365.257172 
	C203.337357,389.913391 239.192551,399.324524 278.734283,392.997986 
	C319.055359,386.546753 350.748810,365.872498 372.680908,331.655029 
	C397.950348,292.230804 402.175140,249.796463 384.949066,206.205414 
	C368.759216,165.236526 338.735229,138.089981 296.704407,125.058899 
	C262.338165,114.404099 228.697662,117.905922 196.209045,133.186234 
	C189.146301,136.508041 187.479279,140.116272 189.074051,148.574249 
M388.486115,87.866653 
	C387.156830,87.935654 385.818054,87.925957 384.499756,88.085709 
	C369.699554,89.879135 358.898438,97.650269 353.323975,111.268806 
	C347.265198,126.070564 349.828217,140.189590 360.959351,151.854523 
	C371.152008,162.535965 383.959351,166.166473 398.300507,162.101593 
	C417.112915,156.769394 428.027466,140.036575 425.822235,120.724144 
	C423.778870,102.829460 408.560089,89.118416 388.486115,87.866653 
z"/>
<path fill="#010101" opacity="1.000000" stroke="none" 
	d="
M292.741913,459.327118 
	C294.149139,451.686554 297.240265,449.036072 304.639832,449.016327 
	C323.966187,448.964783 343.293976,449.138123 362.618988,448.968231 
	C404.902710,448.596527 439.729004,419.710938 447.445068,378.529144 
	C448.541290,372.678345 448.926605,366.616699 448.935211,360.651611 
	C449.035004,291.509613 449.037781,222.367355 448.986053,153.225250 
	C448.948303,102.761833 411.361145,65.065361 360.996674,65.017555 
	C291.687988,64.951775 222.379120,64.955910 153.070419,65.016167 
	C102.688057,65.059967 65.055153,102.735352 65.014908,153.157974 
	C64.959587,222.466690 64.946518,291.775543 65.019363,361.084229 
	C65.072029,411.196198 102.741936,448.851471 152.812820,448.990417 
	C171.805939,449.043121 190.799362,448.973297 209.792557,449.012085 
	C217.126007,449.027069 219.963318,451.259796 222.023407,458.616180 
	C220.178253,466.652466 217.339737,468.976624 209.570099,468.989746 
	C190.074478,469.022675 170.576721,469.180817 151.083466,468.963074 
	C100.373154,468.396729 58.288654,434.428986 47.418385,385.044159 
	C45.714989,377.305450 45.119743,369.183167 45.099834,361.235504 
	C44.925793,291.751312 44.938854,222.266418 45.019108,152.781906 
	C45.078857,101.048752 78.500252,58.900322 128.771500,47.494919 
	C136.652420,45.706917 144.954849,45.124050 153.065292,45.102871 
	C222.382812,44.921909 291.701019,44.956707 361.018982,45.013863 
	C408.497162,45.053013 447.176086,72.349358 463.268005,117.063042 
	C467.369263,128.459015 468.988647,140.298492 468.991760,152.365982 
	C469.009766,222.183853 469.108826,292.001953 468.964478,361.819550 
	C468.858398,413.127441 435.061310,455.352661 385.138123,466.561340 
	C377.886200,468.189514 370.285797,468.770416 362.831177,468.892639 
	C343.507324,469.209534 324.174744,469.028046 304.845795,468.986603 
	C297.455780,468.970734 294.302277,466.452850 292.741913,459.327118 
z"/>
<path fill="#040404" opacity="1.000000" stroke="none" 
	d="
M246.967438,459.335266 
	C248.594696,452.458069 251.946030,449.136658 256.875183,449.059174 
	C261.653992,448.984070 265.199310,452.227905 267.026123,458.613373 
	C265.434753,465.537994 262.101318,468.859680 257.126190,468.937988 
	C252.340317,469.013336 248.782196,465.746582 246.967438,459.335266 
z"/>
<path fill="#FD5959" opacity="1.000000" stroke="none" 
	d="
M150.928589,185.180008 
	C154.509064,180.738205 158.089539,176.296402 162.308350,171.765930 
	C168.386154,174.640289 172.346527,174.452637 176.035172,171.057114 
	C179.855515,167.540359 180.269531,163.229126 177.371765,157.138992 
	C181.272522,154.284073 185.173294,151.429169 189.558624,148.490585 
	C194.320908,153.290512 197.417633,154.206055 203.213318,151.910507 
	C207.693680,150.135925 211.944733,147.724304 216.502014,146.211121 
	C257.758911,132.512375 295.932831,138.340103 330.538391,164.933548 
	C375.097717,199.176163 388.200836,265.392670 360.230896,314.015350 
	C334.576843,358.612122 288.364990,380.881226 237.491821,373.162354 
	C186.784897,365.468658 145.316696,321.885590 139.912033,270.815826 
	C137.333008,246.446182 141.667435,223.487671 152.877228,201.720215 
	C156.953033,193.805710 156.425354,190.978607 150.928589,185.180008 
M327.001862,200.535858 
	C310.152588,180.319427 288.630157,168.497864 262.361328,167.348373 
	C225.753998,165.746460 197.087906,181.001373 178.958908,212.835419 
	C161.352524,243.751755 162.668381,275.390228 181.484238,305.625397 
	C214.024185,357.913757 291.536346,360.989960 328.262970,311.735046 
	C353.566254,277.800232 353.253510,236.223633 327.001862,200.535858 
z"/>
<path fill="#030202" opacity="1.000000" stroke="none" 
	d="
M150.533783,185.107422 
	C156.425354,190.978607 156.953033,193.805710 152.877228,201.720215 
	C141.667435,223.487671 137.333008,246.446182 139.912033,270.815826 
	C145.316696,321.885590 186.784897,365.468658 237.491821,373.162354 
	C288.364990,380.881226 334.576843,358.612122 360.230896,314.015350 
	C388.200836,265.392670 375.097717,199.176163 330.538391,164.933548 
	C295.932831,138.340103 257.758911,132.512375 216.502014,146.211121 
	C211.944733,147.724304 207.693680,150.135925 203.213318,151.910507 
	C197.417633,154.206055 194.320908,153.290512 189.800690,148.222778 
	C187.479279,140.116272 189.146301,136.508041 196.209045,133.186234 
	C228.697662,117.905922 262.338165,114.404099 296.704407,125.058899 
	C338.735229,138.089981 368.759216,165.236526 384.949066,206.205414 
	C402.175140,249.796463 397.950348,292.230804 372.680908,331.655029 
	C350.748810,365.872498 319.055359,386.546753 278.734283,392.997986 
	C239.192551,399.324524 203.337357,389.913391 171.890854,365.257172 
	C143.629929,343.098724 126.601875,313.975098 120.883850,278.381012 
	C115.931999,247.556213 121.193169,218.491516 135.842606,191.039139 
	C139.434006,184.309052 143.089050,182.833557 150.533783,185.107422 
z"/>
<path fill="#030202" opacity="1.000000" stroke="none" 
	d="
M388.949219,87.893982 
	C408.560089,89.118416 423.778870,102.829460 425.822235,120.724144 
	C428.027466,140.036575 417.112915,156.769394 398.300507,162.101593 
	C383.959351,166.166473 371.152008,162.535965 360.959351,151.854523 
	C349.828217,140.189590 347.265198,126.070564 353.323975,111.268806 
	C358.898438,97.650269 369.699554,89.879135 384.499756,88.085709 
	C385.818054,87.925957 387.156830,87.935654 388.949219,87.893982 
M373.240021,115.909225 
	C368.800568,124.290298 369.615082,132.353882 375.504456,138.327179 
	C381.060791,143.962692 389.703461,145.396698 396.569916,141.586716 
	C403.481628,137.751617 406.647644,131.763275 406.015106,123.850410 
	C405.457703,116.877144 400.510193,110.726326 393.507996,108.712814 
	C385.475372,106.402985 378.837433,108.742744 373.240021,115.909225 
z"/>
<path fill="#060404" opacity="1.000000" stroke="none" 
	d="
M177.118042,156.949158 
	C180.269531,163.229126 179.855515,167.540359 176.035172,171.057114 
	C172.346527,174.452637 168.386154,174.640289 162.579529,171.510269 
	C159.207489,167.318558 157.878494,163.135086 160.956421,158.509430 
	C163.408157,154.824860 166.850647,153.076813 171.173935,153.998856 
	C173.175919,154.425827 174.973877,155.809433 177.118042,156.949158 
z"/>
<path fill="#030202" opacity="1.000000" stroke="none" 
	d="
M327.216309,200.819122 
	C353.253510,236.223633 353.566254,277.800232 328.262970,311.735046 
	C291.536346,360.989960 214.024185,357.913757 181.484238,305.625397 
	C162.668381,275.390228 161.352524,243.751755 178.958908,212.835419 
	C197.087906,181.001373 225.753998,165.746460 262.361328,167.348373 
	C288.630157,168.497864 310.152588,180.319427 327.216309,200.819122 
M324.107910,276.495575 
	C325.005676,271.769684 326.361816,267.079193 326.729919,262.312408 
	C330.172394,217.732040 291.464813,181.616837 247.100510,187.868469 
	C211.064316,192.946533 185.228638,224.573990 187.147873,261.261108 
	C189.003433,296.730988 218.813095,325.748718 254.568817,326.927612 
	C285.783325,327.956818 314.451782,308.104248 324.107910,276.495575 
z"/>
<path fill="#FC5959" opacity="1.000000" stroke="none" 
	d="
M373.464447,115.614197 
	C378.837433,108.742744 385.475372,106.402985 393.507996,108.712814 
	C400.510193,110.726326 405.457703,116.877144 406.015106,123.850410 
	C406.647644,131.763275 403.481628,137.751617 396.569916,141.586716 
	C389.703461,145.396698 381.060791,143.962692 375.504456,138.327179 
	C369.615082,132.353882 368.800568,124.290298 373.464447,115.614197 
z"/>
<path fill="#FEFEFE" opacity="1.000000" stroke="none" 
	d="
M324.039703,276.894318 
	C314.451782,308.104248 285.783325,327.956818 254.568817,326.927612 
	C218.813095,325.748718 189.003433,296.730988 187.147873,261.261108 
	C185.228638,224.573990 211.064316,192.946533 247.100510,187.868469 
	C291.464813,181.616837 330.172394,217.732040 326.729919,262.312408 
	C326.361816,267.079193 325.005676,271.769684 324.039703,276.894318 
z"/>
</svg>