<svg version="1.1" id="Layer_1" xmlns="http://www.w3.org/2000/svg" xmlns:xlink="http://www.w3.org/1999/xlink" x="0px" y="0px"
	 width="100%" viewBox="0 0 512 512" enable-background="new 0 0 512 512" xml:space="preserve">

<path fill="#4CAF50" opacity="1.000000" stroke="none" 
	d="
M75.305176,466.280487 
	C63.973881,469.238861 53.034378,472.082794 41.172066,475.166626 
	C41.714714,472.905731 42.065548,471.234406 42.517788,469.591003 
	C50.553673,440.388824 58.505745,411.162964 66.721306,382.011353 
	C68.561409,375.482056 67.990829,369.755402 64.608376,363.851685 
	C48.421936,335.600098 38.115490,305.345306 35.243568,272.838257 
	C31.788454,233.730087 38.570343,196.249634 56.931473,161.575272 
	C95.141617,89.416725 154.969757,46.169197 235.790085,34.592415 
	C296.675476,25.871128 351.920563,42.850815 398.754578,82.231750 
	C450.000122,125.322182 479.897247,180.783966 482.344299,248.551514 
	C484.291626,302.480377 466.911652,351.162537 433.694153,393.341003 
	C386.396759,453.397552 323.555023,480.668091 247.327209,476.740204 
	C216.239136,475.138306 186.383575,467.920380 158.547333,453.669586 
	C149.665070,449.122375 141.265869,448.628082 131.697693,451.440857 
	C113.187508,456.882324 94.380791,461.315155 75.305176,466.280487 
M201.991440,154.533005 
	C199.904510,149.638855 198.549515,144.223663 195.535446,139.989502 
	C192.173996,135.267349 188.014328,129.758682 182.965866,127.832497 
	C163.681396,120.474716 141.858780,121.299850 126.297340,138.217239 
	C112.987495,152.686829 105.447952,169.782104 103.050476,189.147583 
	C100.260971,211.679672 106.011520,232.715683 116.791023,252.066193 
	C152.094986,315.441162 205.085785,358.204620 272.848999,382.901642 
	C292.499268,390.063416 312.948151,392.427002 333.805786,388.064545 
	C364.457581,381.653503 387.468628,356.790192 390.458588,326.094757 
	C391.557587,314.812317 389.828766,303.870331 378.294128,298.293121 
	C359.151306,289.037262 339.834442,280.096375 320.271942,271.772400 
	C310.475250,267.603851 301.101715,270.530304 293.710724,278.045502 
	C288.710022,283.130249 284.422241,288.917725 279.837311,294.409027 
	C278.064545,296.532288 276.351776,298.705658 274.766266,300.665100 
	C243.804840,286.776825 217.851822,267.832336 201.218063,237.934647 
	C205.442566,232.545334 209.926346,227.391800 213.770920,221.798874 
	C221.034409,211.232224 222.074051,200.192993 216.353836,188.297104 
	C211.170197,177.517014 206.900726,166.297318 201.991440,154.533005 
z"/>

</svg>